<svg xmlns="http://www.w3.org/2000/svg" xmlns:xlink="http://www.w3.org/1999/xlink" width="500" zoomAndPan="magnify" viewBox="0 0 375 374.999991" height="500" preserveAspectRatio="xMidYMid meet" version="1.0"><defs><g/><clipPath id="db52dd9347"><path d="M 49.378906 136.253906 L 119.878906 136.253906 L 119.878906 218.753906 L 49.378906 218.753906 Z M 49.378906 136.253906 " clip-rule="nonzero"/></clipPath></defs><g clip-path="url(#db52dd9347)"><path fill="#ff914d" d="M 101.589844 163.699219 L 96.925781 163.699219 L 99.699219 160.492188 C 100.335938 160.644531 100.992188 160.726562 101.679688 160.726562 C 106.316406 160.726562 110.101562 156.960938 110.132812 152.324219 C 110.160156 147.660156 106.386719 143.84375 101.679688 143.824219 C 97.046875 143.824219 93.25 147.589844 93.230469 152.222656 C 93.21875 153.417969 93.464844 154.601562 93.9375 155.683594 L 87.117188 163.699219 L 84.132812 163.699219 L 75.609375 153.164062 C 76.683594 151.433594 77.269531 149.429688 77.292969 147.375 C 77.3125 144.421875 76.179688 141.636719 74.101562 139.542969 C 72.027344 137.4375 69.265625 136.273438 66.238281 136.253906 C 60.1875 136.253906 55.230469 141.183594 55.1875 147.246094 C 55.167969 150.199219 56.300781 152.984375 58.375 155.089844 C 60.449219 157.191406 63.222656 158.355469 66.238281 158.378906 C 67.027344 158.378906 67.820312 158.296875 68.578125 158.132812 L 73.0625 163.722656 L 67.34375 163.722656 C 59.257812 163.699219 49.398438 166.140625 49.398438 182.847656 L 49.398438 200.507812 C 49.398438 210.386719 57.476562 218.460938 67.351562 218.460938 L 101.589844 218.460938 C 111.457031 218.460938 119.542969 210.386719 119.542969 200.507812 L 119.542969 182.847656 C 119.542969 168 109.675781 163.699219 101.589844 163.699219 Z M 103.390625 208.089844 L 65.550781 208.089844 C 62.769531 208.089844 60.421875 205.742188 60.421875 202.957031 L 60.441406 182.847656 L 60.441406 179.78125 C 60.542969 177.078125 62.839844 174.832031 65.550781 174.832031 L 103.390625 174.832031 C 106.175781 174.832031 108.523438 177.179688 108.523438 179.964844 L 108.503906 200.082031 L 108.523438 200.082031 L 108.523438 202.957031 C 108.523438 205.742188 106.175781 208.089844 103.390625 208.089844 Z M 103.390625 208.089844 " fill-opacity="1" fill-rule="nonzero"/></g><path fill="#0cc0df" d="M 76.835938 197.410156 C 76.816406 194.152344 76.796875 188.808594 76.773438 185.550781 C 76.753906 182.292969 79.195312 180.945312 81.988281 182.554688 C 84.769531 184.175781 89.425781 186.816406 92.207031 188.433594 C 94.992188 190.054688 95.050781 192.714844 92.277344 194.363281 C 89.507812 196.015625 84.820312 198.707031 82.046875 200.347656 C 79.285156 201.996094 76.847656 200.671875 76.835938 197.410156 Z M 76.835938 197.410156 " fill-opacity="1" fill-rule="nonzero"/><g fill="#0cc0df" fill-opacity="1"><g transform="translate(134.852955, 198.364617)"><g><path d="M 38.71875 0 L 29.015625 0 L 26.453125 -7.328125 L 12.421875 -7.328125 L 9.90625 0 L 0.375 0 L 14.625 -37.484375 L 24.421875 -37.484375 Z M 14.890625 -15.15625 L 24.09375 -15.15625 L 19.484375 -28.171875 Z M 14.890625 -15.15625 "/></g></g></g><g fill="#0cc0df" fill-opacity="1"><g transform="translate(171.789019, 198.364617)"><g><path d="M 19.921875 -28.546875 C 22.097656 -28.546875 24.03125 -28.035156 25.71875 -27.015625 C 27.414062 -25.992188 28.75 -24.59375 29.71875 -22.8125 C 30.6875 -21.03125 31.171875 -18.992188 31.171875 -16.703125 L 31.171875 0 L 22.21875 0 L 22.21875 -14.828125 C 22.21875 -16.578125 21.796875 -17.96875 20.953125 -19 C 20.117188 -20.039062 18.9375 -20.5625 17.40625 -20.5625 C 15.90625 -20.5625 14.679688 -20.035156 13.734375 -18.984375 C 12.785156 -17.929688 12.3125 -16.546875 12.3125 -14.828125 L 12.3125 0 L 3.375 0 L 3.375 -27.84375 L 11.671875 -27.84375 L 11.671875 -25.171875 C 13.890625 -27.421875 16.640625 -28.546875 19.921875 -28.546875 Z M 19.921875 -28.546875 "/></g></g></g><g fill="#0cc0df" fill-opacity="1"><g transform="translate(204.014341, 198.364617)"><g><path d="M 12.3125 0 L 3.375 0 L 3.375 -27.84375 L 12.3125 -27.84375 Z M 12.421875 -32.125 L 3.21875 -32.125 L 3.21875 -39.296875 L 12.421875 -39.296875 Z M 12.421875 -32.125 "/></g></g></g><g fill="#ffbd59" fill-opacity="1"><g transform="translate(226.247582, 198.364617)"><g><path d="M 31.328125 -37.484375 L 29.765625 -29.296875 L 16.703125 -29.296875 L 15.265625 -21.796875 L 27.84375 -21.796875 L 26.34375 -13.96875 L 13.765625 -13.96875 L 11.078125 0 L 1.71875 0 L 8.890625 -37.484375 Z M 31.328125 -37.484375 "/></g></g></g><g fill="#ffbd59" fill-opacity="1"><g transform="translate(253.44097, 198.364617)"><g><path d="M 9.953125 0 L 1.015625 0 L 8.40625 -38.546875 L 17.34375 -38.546875 Z M 9.953125 0 "/></g></g></g><g fill="#ffbd59" fill-opacity="1"><g transform="translate(267.67982, 198.364617)"><g><path d="M 17.71875 -28.546875 C 20.394531 -28.546875 22.769531 -27.960938 24.84375 -26.796875 C 26.914062 -25.640625 28.519531 -24.0625 29.65625 -22.0625 C 30.800781 -20.0625 31.375 -17.863281 31.375 -15.46875 C 31.375 -14.007812 31.179688 -12.617188 30.796875 -11.296875 L 10.0625 -11.296875 C 10.28125 -9.585938 10.890625 -8.273438 11.890625 -7.359375 C 12.890625 -6.453125 14.207031 -6 15.84375 -6 C 17.09375 -6 18.195312 -6.265625 19.15625 -6.796875 C 20.125 -7.335938 20.828125 -8 21.265625 -8.78125 L 30.046875 -8.78125 C 28.898438 -6.070312 27.03125 -3.8125 24.4375 -2 C 21.851562 -0.195312 18.773438 0.703125 15.203125 0.703125 C 12.597656 0.703125 10.25 0.148438 8.15625 -0.953125 C 6.070312 -2.066406 4.429688 -3.613281 3.234375 -5.59375 C 2.046875 -7.570312 1.453125 -9.8125 1.453125 -12.3125 C 1.453125 -15.132812 2.144531 -17.785156 3.53125 -20.265625 C 4.925781 -22.742188 6.863281 -24.742188 9.34375 -26.265625 C 11.820312 -27.785156 14.613281 -28.546875 17.71875 -28.546875 Z M 17.40625 -21.796875 C 15.832031 -21.796875 14.484375 -21.347656 13.359375 -20.453125 C 12.234375 -19.554688 11.382812 -18.363281 10.8125 -16.875 L 23.03125 -16.875 C 22.914062 -18.332031 22.375 -19.515625 21.40625 -20.421875 C 20.445312 -21.335938 19.113281 -21.796875 17.40625 -21.796875 Z M 17.40625 -21.796875 "/></g></g></g><g fill="#ffbd59" fill-opacity="1"><g transform="translate(298.51332, 198.364617)"><g><path d="M 23.5625 -27.84375 L 33.953125 -27.84375 L 22.21875 -14.453125 L 29.234375 0 L 20.140625 0 L 16.171875 -9.203125 L 8.5625 0 L -1.875 0 L 10.703125 -14.296875 L 4.234375 -27.84375 L 13.0625 -27.84375 L 16.65625 -19.21875 Z M 23.5625 -27.84375 "/></g></g></g><g fill="#48c3e4" fill-opacity="1"><g transform="translate(134.852955, 216.261665)"><g><path d="M 7.546875 0 L 5.578125 0 L 5.078125 -1.4375 L 2.5625 -1.4375 L 2.0625 0 L 0.078125 0 L 2.40625 -7.09375 L 5.21875 -7.09375 Z M 4.765625 -2.90625 L 3.8125 -5.8125 L 2.875 -2.90625 Z M 4.765625 -2.90625 "/></g></g></g><g fill="#48c3e4" fill-opacity="1"><g transform="translate(145.240586, 216.261665)"><g><path d="M 2.4375 -4.3125 L 2.4375 0 L 0.5625 0 L 0.5625 -7.09375 L 2.671875 -7.09375 L 5.46875 -2.890625 L 5.46875 -7.09375 L 7.328125 -7.09375 L 7.328125 0 L 5.28125 0 Z M 2.4375 -4.3125 "/></g></g></g><g fill="#48c3e4" fill-opacity="1"><g transform="translate(155.894796, 216.261665)"><g><path d="M 0.578125 -7.09375 L 2.453125 -7.09375 L 2.453125 0 L 0.578125 0 Z M 0.578125 -7.09375 "/></g></g></g><g fill="#48c3e4" fill-opacity="1"><g transform="translate(161.67791, 216.261665)"><g><path d="M 4.265625 0 L 2.671875 -5.546875 L 2.3125 0 L 0.453125 0 L 0.671875 -3.546875 C 0.753906 -4.984375 0.820312 -6.164062 0.875 -7.09375 L 4.03125 -7.09375 L 5.15625 -2.9375 L 6.265625 -7.09375 L 9.4375 -7.09375 C 9.476562 -6.164062 9.546875 -4.984375 9.640625 -3.546875 L 9.859375 0 L 7.984375 0 L 7.640625 -5.546875 L 6.03125 0 Z M 4.265625 0 "/></g></g></g><g fill="#48c3e4" fill-opacity="1"><g transform="translate(174.731315, 216.261665)"><g><path d="M 0.5625 -7.09375 L 5.921875 -7.09375 L 5.921875 -5.65625 L 2.4375 -5.65625 L 2.4375 -4.25 L 5.078125 -4.25 L 5.078125 -2.78125 L 2.4375 -2.78125 L 2.4375 -1.4375 L 5.921875 -1.4375 L 5.921875 0 L 0.5625 0 Z M 0.5625 -7.09375 "/></g></g></g><g fill="#48c3e4" fill-opacity="1"><g transform="translate(183.790452, 216.261665)"><g/></g></g><g fill="#48c3e4" fill-opacity="1"><g transform="translate(188.834425, 216.261665)"><g/></g></g><g fill="#48c3e4" fill-opacity="1"><g transform="translate(193.880295, 216.261665)"><g><path d="M 7.234375 -1.765625 L 8.171875 -7.09375 L 10.09375 -7.09375 L 8.640625 0 L 6.0625 0 L 5.0625 -3.875 L 4.09375 0 L 1.546875 0 L 0.078125 -7.09375 L 2 -7.09375 L 2.9375 -1.765625 L 4.234375 -7.09375 L 5.875 -7.09375 Z M 7.234375 -1.765625 "/></g></g></g><g fill="#48c3e4" fill-opacity="1"><g transform="translate(206.800412, 216.261665)"><g><path d="M 7.546875 0 L 5.578125 0 L 5.078125 -1.4375 L 2.5625 -1.4375 L 2.0625 0 L 0.078125 0 L 2.40625 -7.09375 L 5.21875 -7.09375 Z M 4.765625 -2.90625 L 3.8125 -5.8125 L 2.875 -2.90625 Z M 4.765625 -2.90625 "/></g></g></g><g fill="#48c3e4" fill-opacity="1"><g transform="translate(217.188043, 216.261665)"><g><path d="M 4.0625 0 L 2.1875 0 L 2.1875 -5.65625 L 0.140625 -5.65625 L 0.140625 -7.09375 L 6.109375 -7.09375 L 6.109375 -5.65625 L 4.0625 -5.65625 Z M 4.0625 0 "/></g></g></g><g fill="#48c3e4" fill-opacity="1"><g transform="translate(226.194317, 216.261665)"><g><path d="M 4.015625 -1.359375 C 4.492188 -1.359375 4.875 -1.445312 5.15625 -1.625 C 5.4375 -1.8125 5.578125 -2.082031 5.578125 -2.4375 L 7.484375 -2.4375 C 7.367188 -1.675781 7.003906 -1.066406 6.390625 -0.609375 C 5.773438 -0.148438 4.984375 0.078125 4.015625 0.078125 C 2.773438 0.078125 1.816406 -0.332031 1.140625 -1.15625 C 0.597656 -1.8125 0.328125 -2.585938 0.328125 -3.484375 C 0.328125 -4.441406 0.597656 -5.265625 1.140625 -5.953125 C 1.816406 -6.796875 2.773438 -7.21875 4.015625 -7.21875 C 4.984375 -7.21875 5.773438 -6.988281 6.390625 -6.53125 C 7.003906 -6.082031 7.367188 -5.476562 7.484375 -4.71875 L 5.578125 -4.71875 C 5.578125 -5.070312 5.441406 -5.335938 5.171875 -5.515625 C 4.898438 -5.703125 4.53125 -5.796875 4.0625 -5.796875 C 3.507812 -5.796875 3.054688 -5.570312 2.703125 -5.125 C 2.359375 -4.6875 2.1875 -4.140625 2.1875 -3.484375 C 2.1875 -2.835938 2.351562 -2.320312 2.6875 -1.9375 C 3.019531 -1.550781 3.460938 -1.359375 4.015625 -1.359375 Z M 4.015625 -1.359375 "/></g></g></g><g fill="#48c3e4" fill-opacity="1"><g transform="translate(236.751582, 216.261665)"><g><path d="M 2.4375 0 L 0.5625 0 L 0.5625 -7.09375 L 2.4375 -7.09375 L 2.4375 -4.140625 L 5 -4.140625 L 5 -7.09375 L 6.875 -7.09375 L 6.875 0 L 5 0 L 5 -2.671875 L 2.4375 -2.671875 Z M 2.4375 0 "/></g></g></g><g fill="#48c3e4" fill-opacity="1"><g transform="translate(246.945338, 216.261665)"><g/></g></g><g fill="#48c3e4" fill-opacity="1"><g transform="translate(251.989309, 216.261665)"><g><path d="M 7.546875 0 L 5.578125 0 L 5.078125 -1.4375 L 2.5625 -1.4375 L 2.0625 0 L 0.078125 0 L 2.40625 -7.09375 L 5.21875 -7.09375 Z M 4.765625 -2.90625 L 3.8125 -5.8125 L 2.875 -2.90625 Z M 4.765625 -2.90625 "/></g></g></g><g fill="#48c3e4" fill-opacity="1"><g transform="translate(262.376939, 216.261665)"><g><path d="M 0.5625 0 L 0.5625 -7.09375 L 3.796875 -7.09375 C 4.734375 -7.09375 5.453125 -6.847656 5.953125 -6.359375 C 6.460938 -5.878906 6.71875 -5.285156 6.71875 -4.578125 C 6.71875 -3.878906 6.460938 -3.28125 5.953125 -2.78125 C 5.453125 -2.289062 4.734375 -2.046875 3.796875 -2.046875 L 2.4375 -2.046875 L 2.4375 0 Z M 2.4375 -3.484375 L 3.78125 -3.484375 C 4.09375 -3.484375 4.347656 -3.582031 4.546875 -3.78125 C 4.753906 -3.976562 4.859375 -4.238281 4.859375 -4.5625 C 4.859375 -4.894531 4.753906 -5.160156 4.546875 -5.359375 C 4.347656 -5.554688 4.09375 -5.65625 3.78125 -5.65625 L 2.4375 -5.65625 Z M 2.4375 -3.484375 "/></g></g></g><g fill="#48c3e4" fill-opacity="1"><g transform="translate(272.049657, 216.261665)"><g><path d="M 0.5625 0 L 0.5625 -7.09375 L 3.796875 -7.09375 C 4.734375 -7.09375 5.453125 -6.847656 5.953125 -6.359375 C 6.460938 -5.878906 6.71875 -5.285156 6.71875 -4.578125 C 6.71875 -3.878906 6.460938 -3.28125 5.953125 -2.78125 C 5.453125 -2.289062 4.734375 -2.046875 3.796875 -2.046875 L 2.4375 -2.046875 L 2.4375 0 Z M 2.4375 -3.484375 L 3.78125 -3.484375 C 4.09375 -3.484375 4.347656 -3.582031 4.546875 -3.78125 C 4.753906 -3.976562 4.859375 -4.238281 4.859375 -4.5625 C 4.859375 -4.894531 4.753906 -5.160156 4.546875 -5.359375 C 4.347656 -5.554688 4.09375 -5.65625 3.78125 -5.65625 L 2.4375 -5.65625 Z M 2.4375 -3.484375 "/></g></g></g></svg>